<svg width="32" height="32" viewBox="0 0 32 32" fill="none" xmlns="http://www.w3.org/2000/svg">
<path fill-rule="evenodd" clip-rule="evenodd" d="M28.4442 17.5364C28.0326 17.5349 27.6382 17.3712 27.3465 17.0808L16.0183 5.75171L4.68997 17.0808C4.54777 17.2334 4.37629 17.3558 4.18576 17.4407C3.99524 17.5256 3.78956 17.5713 3.58101 17.5749C3.37245 17.5786 3.16529 17.5402 2.97189 17.4621C2.77848 17.384 2.60279 17.2677 2.4553 17.1202C2.30781 16.9727 2.19153 16.797 2.11341 16.6036C2.03529 16.4102 1.99693 16.203 2.00061 15.9944C2.00429 15.7859 2.04994 15.5802 2.13483 15.3896C2.21972 15.1991 2.34212 15.0276 2.49473 14.8854L14.9206 2.45861C15.0641 2.31333 15.2351 2.19799 15.4235 2.11926C15.6119 2.04054 15.8141 2 16.0183 2C16.2225 2 16.4246 2.04054 16.613 2.11926C16.8015 2.19799 16.9724 2.31333 17.1159 2.45861L29.5418 14.8854C29.6871 15.0289 29.8024 15.1998 29.8811 15.3883C29.9598 15.5767 30.0004 15.7789 30.0004 15.9831C30.0004 16.1873 29.9598 16.3895 29.8811 16.5779C29.8024 16.7663 29.6871 16.9373 29.5418 17.0808C29.2501 17.3712 28.8557 17.5349 28.4442 17.5364ZM6.69883 29.4454C6.4242 29.4454 6.16081 29.3363 5.96662 29.1421C5.77243 28.9479 5.66333 28.6845 5.66333 28.4098V19.0898H7.73432V27.3743H24.3022V19.0898H26.3732V28.4098C26.3732 28.6845 26.2641 28.9479 26.0699 29.1421C25.8757 29.3363 25.6123 29.4454 25.3377 29.4454H6.69883ZM14.8677 24.9541C15.2083 25.1817 15.6087 25.3032 16.0183 25.3032C16.5675 25.3032 17.0943 25.0849 17.4827 24.6965C17.871 24.3081 18.0892 23.7813 18.0892 23.232C18.0892 22.8224 17.9678 22.422 17.7402 22.0814C17.5127 21.7408 17.1892 21.4753 16.8108 21.3186C16.4324 21.1618 16.016 21.1208 15.6142 21.2007C15.2125 21.2806 14.8435 21.4779 14.5539 21.7675C14.2642 22.0572 14.067 22.4262 13.9871 22.828C13.9072 23.2297 13.9482 23.6462 14.1049 24.0246C14.2617 24.4031 14.5271 24.7265 14.8677 24.9541ZM13.0878 20.3014L11.6278 18.8412C12.7927 17.6777 14.3718 17.0241 16.0183 17.0241C17.6647 17.0241 19.2438 17.6777 20.4087 18.8412L18.9487 20.3014C18.159 19.548 17.1096 19.1277 16.0183 19.1277C14.9269 19.1277 13.8775 19.548 13.0878 20.3014ZM19.1905 15.5725C20.1962 15.9894 21.1098 16.6005 21.8791 17.3707L23.3392 15.9106C21.3973 13.9692 18.764 12.8786 16.0183 12.8786C13.2725 12.8786 10.6392 13.9692 8.69733 15.9106L10.1574 17.3707C10.9267 16.6005 11.8403 15.9894 12.846 15.5725C13.8517 15.1556 14.9296 14.941 16.0183 14.941C17.1069 14.941 18.1849 15.1556 19.1905 15.5725Z" fill="#F58C00"/>
<path fill-rule="evenodd" clip-rule="evenodd" d="M7.73432 27.3138L5.93889 29.1133C5.76207 28.9222 5.66333 28.6711 5.66333 28.4098V19.0898H7.73432V27.3138ZM17.7539 17.2715L15.9002 19.1294C14.8515 19.1585 13.849 19.5752 13.0878 20.3014L11.6278 18.8412C12.7927 17.6777 14.3718 17.0241 16.0183 17.0241C16.6109 17.0241 17.1949 17.1088 17.7539 17.2715ZM20.9109 14.1074L19.3716 15.6501C19.3116 15.6236 19.2512 15.5977 19.1905 15.5725C18.1849 15.1556 17.1069 14.941 16.0183 14.941C14.9296 14.941 13.8517 15.1556 12.846 15.5725C11.8403 15.9894 10.9267 16.6005 10.1574 17.3707L8.69733 15.9106C10.6392 13.9692 13.2725 12.8786 16.0183 12.8786C17.7411 12.8786 19.4196 13.308 20.9109 14.1074ZM22.6402 12.3741L16.0183 5.75171L4.68997 17.0808C4.54777 17.2334 4.37629 17.3558 4.18576 17.4407C3.99524 17.5256 3.78956 17.5713 3.58101 17.5749C3.37245 17.5786 3.16529 17.5402 2.97189 17.4621C2.77848 17.384 2.60279 17.2677 2.4553 17.1202C2.30781 16.9727 2.19153 16.797 2.11341 16.6036C2.03529 16.4102 1.99693 16.203 2.00061 15.9944C2.00429 15.7859 2.04994 15.5802 2.13483 15.3896C2.21972 15.1991 2.34212 15.0276 2.49473 14.8854L14.9206 2.45861C15.0641 2.31333 15.2351 2.19799 15.4235 2.11926C15.6119 2.04054 15.8141 2 16.0183 2C16.2225 2 16.4246 2.04054 16.613 2.11926C16.8015 2.19799 16.9724 2.31333 17.1159 2.45861L24.8331 10.1763L22.6402 12.3741Z" fill="#FF008C"/>
</svg>
